<?xml version="1.0" encoding="utf-8"?>
<!-- Generator: Adobe Illustrator 22.0.1, SVG Export Plug-In . SVG Version: 6.00 Build 0)  -->
<svg version="1.1" id="Слой_1" xmlns="http://www.w3.org/2000/svg" xmlns:xlink="http://www.w3.org/1999/xlink" x="0px" y="0px"
	 viewBox="0 0 17.8 19.8" style="enable-background:new 0 0 17.8 19.8;" xml:space="preserve">
<style type="text/css">
	.st0{fill:none;}
	.st1{fill-opacity:0.35;}
</style>
<path class="st0" d="M-0.1-2.1h18v24h-18V-2.1z"/>
<path class="st1" d="M5.9,8.9h-2v2h2V8.9z M9.9,8.9h-2v2h2V8.9z M13.9,8.9h-2v2h2V8.9z M15.9,1.9h-1v-2h-2v2h-8v-2h-2v2h-1
	c-1.1,0-2,0.9-2,2v14c0,1.1,0.9,2,2,2h14c1.1,0,2-0.9,2-2v-14C17.9,2.8,17,1.9,15.9,1.9z M15.9,17.9h-14v-11h14V17.9z"/>
</svg>
